<svg version="1.1" id="Layer_1" xmlns="http://www.w3.org/2000/svg" xmlns:xlink="http://www.w3.org/1999/xlink" x="0px" y="0px"
	 width="100%" viewBox="0 0 500 500" enable-background="new 0 0 500 500" xml:space="preserve">
<path fill="#343434" opacity="1.000000" stroke="none" 
	d="
M243.000000,501.000000 
	C162.000015,501.000000 81.500038,501.000000 1.000043,501.000000 
	C1.000029,334.333405 1.000029,167.666779 1.000014,1.000133 
	C167.666565,1.000088 334.333130,1.000088 500.999756,1.000044 
	C500.999847,167.666519 500.999847,334.333038 500.999939,500.999786 
	C415.166656,501.000000 329.333344,501.000000 243.000000,501.000000 
M398.182831,332.339691 
	C401.553345,336.890015 404.839966,341.505859 408.323273,345.968140 
	C410.732880,349.055054 413.839478,350.388702 417.468231,347.982025 
	C420.605774,345.901154 421.035461,341.927521 418.696655,338.223846 
	C417.899048,336.960724 416.940186,335.799377 416.053986,334.592255 
	C396.348022,307.750641 376.724243,280.847870 356.841003,254.138260 
	C354.080658,250.430206 353.828156,248.242355 356.998932,244.574234 
	C374.429443,224.409790 391.548645,203.976196 408.768524,183.629761 
	C414.365082,177.017044 420.011810,170.444946 425.498505,163.742050 
	C428.010223,160.673630 428.248291,157.274704 425.294342,154.302246 
	C422.635773,151.627014 418.656128,152.156891 415.570618,155.347656 
	C414.993652,155.944321 414.508148,156.628754 413.971558,157.265152 
	C392.601440,182.610016 371.231812,207.955307 349.854675,233.294250 
	C348.774933,234.574112 347.628723,235.797882 345.771118,237.879730 
	C345.771118,211.317154 345.772552,186.155746 345.767517,160.994324 
	C345.767212,159.495255 345.920227,157.957596 345.646973,156.504654 
	C344.943726,152.765686 342.701385,150.480728 338.750641,150.746353 
	C335.093201,150.992233 333.087097,153.236618 332.835419,156.910690 
	C332.733124,158.404129 332.794861,159.909317 332.794830,161.409149 
	C332.793518,215.074387 332.793671,268.739624 332.793671,322.404846 
	C332.793671,324.125977 332.793701,325.847076 332.793701,327.568207 
	C330.651154,326.278625 329.645172,324.786194 328.665131,323.276917 
	C292.236053,267.176361 255.812180,211.072403 219.379837,154.973953 
	C212.623611,144.570724 204.977921,144.593445 198.174957,155.077835 
	C183.956116,176.991135 169.784134,198.934845 155.581039,220.858368 
	C151.685165,226.871933 147.747192,232.858215 143.605942,239.197784 
	C125.097816,210.629501 106.951729,182.750519 88.986763,154.755325 
	C86.155396,150.343124 82.779182,147.537979 77.557869,149.061050 
	C72.583328,150.512131 71.909660,154.742065 71.916000,159.438339 
	C71.997887,220.103287 71.970581,280.768372 71.973923,341.433411 
	C71.973999,342.766205 71.837845,344.128876 72.062668,345.426056 
	C72.668549,348.921783 74.622574,351.232117 78.361160,351.326538 
	C81.891907,351.415741 83.898224,349.241577 84.709312,346.062531 
	C85.111221,344.487244 84.951775,342.754517 84.952080,341.093018 
	C84.961899,287.094482 84.960228,233.095917 84.960266,179.097366 
	C84.960266,177.452255 84.960266,175.807144 84.960266,174.162033 
	C101.874466,198.546875 118.096039,222.740021 133.397552,247.501724 
	C138.531998,255.810501 148.439606,256.304199 153.897659,247.444550 
	C168.468857,223.792145 183.964035,200.708847 199.109039,177.410461 
	C199.846512,176.275970 200.746490,175.247086 202.245163,173.287048 
	C202.245163,176.278275 202.245163,178.081848 202.245163,179.885422 
	C202.245163,233.383987 202.242996,286.882568 202.254395,340.381134 
	C202.254791,342.208405 202.125916,344.095428 202.520798,345.850281 
	C203.290695,349.271820 205.355301,351.533295 209.161438,351.283966 
	C212.911026,351.038330 214.772751,348.702393 215.142410,345.130219 
	C215.313202,343.479889 215.219330,341.800598 215.219406,340.134430 
	C215.222122,286.802521 215.221649,233.470612 215.221649,180.138702 
	C215.221649,178.292984 215.221664,176.447266 215.221664,174.601547 
	C217.048660,175.327225 217.725845,176.192764 218.321609,177.111145 
	C255.267975,234.065765 292.223480,291.014496 329.114258,348.005096 
	C331.715088,352.022949 334.793793,354.723694 339.778381,353.259308 
	C344.795776,351.785278 345.878204,347.676971 345.869904,343.016418 
	C345.823792,317.184418 345.799194,291.352448 345.781494,265.520447 
	C345.780792,264.472198 345.923767,263.423828 346.077759,261.301025 
	C363.775726,285.397766 380.791443,308.565582 398.182831,332.339691 
z"/>
<path fill="#FCFCFC" opacity="1.000000" stroke="none" 
	d="
M397.994995,332.036560 
	C380.791443,308.565582 363.775726,285.397766 346.077759,261.301025 
	C345.923767,263.423828 345.780792,264.472198 345.781494,265.520447 
	C345.799194,291.352448 345.823792,317.184418 345.869904,343.016418 
	C345.878204,347.676971 344.795776,351.785278 339.778381,353.259308 
	C334.793793,354.723694 331.715088,352.022949 329.114258,348.005096 
	C292.223480,291.014496 255.267975,234.065765 218.321609,177.111145 
	C217.725845,176.192764 217.048660,175.327225 215.221664,174.601547 
	C215.221664,176.447266 215.221649,178.292984 215.221649,180.138702 
	C215.221649,233.470612 215.222122,286.802521 215.219406,340.134430 
	C215.219330,341.800598 215.313202,343.479889 215.142410,345.130219 
	C214.772751,348.702393 212.911026,351.038330 209.161438,351.283966 
	C205.355301,351.533295 203.290695,349.271820 202.520798,345.850281 
	C202.125916,344.095428 202.254791,342.208405 202.254395,340.381134 
	C202.242996,286.882568 202.245163,233.383987 202.245163,179.885422 
	C202.245163,178.081848 202.245163,176.278275 202.245163,173.287048 
	C200.746490,175.247086 199.846512,176.275970 199.109039,177.410461 
	C183.964035,200.708847 168.468857,223.792145 153.897659,247.444550 
	C148.439606,256.304199 138.531998,255.810501 133.397552,247.501724 
	C118.096039,222.740021 101.874466,198.546875 84.960266,174.162033 
	C84.960266,175.807144 84.960266,177.452255 84.960266,179.097366 
	C84.960228,233.095917 84.961899,287.094482 84.952080,341.093018 
	C84.951775,342.754517 85.111221,344.487244 84.709312,346.062531 
	C83.898224,349.241577 81.891907,351.415741 78.361160,351.326538 
	C74.622574,351.232117 72.668549,348.921783 72.062668,345.426056 
	C71.837845,344.128876 71.973999,342.766205 71.973923,341.433411 
	C71.970581,280.768372 71.997887,220.103287 71.916000,159.438339 
	C71.909660,154.742065 72.583328,150.512131 77.557869,149.061050 
	C82.779182,147.537979 86.155396,150.343124 88.986763,154.755325 
	C106.951729,182.750519 125.097816,210.629501 143.605942,239.197784 
	C147.747192,232.858215 151.685165,226.871933 155.581039,220.858368 
	C169.784134,198.934845 183.956116,176.991135 198.174957,155.077835 
	C204.977921,144.593445 212.623611,144.570724 219.379837,154.973953 
	C255.812180,211.072403 292.236053,267.176361 328.665131,323.276917 
	C329.645172,324.786194 330.651154,326.278625 332.793701,327.568207 
	C332.793701,325.847076 332.793671,324.125977 332.793671,322.404846 
	C332.793671,268.739624 332.793518,215.074387 332.794830,161.409149 
	C332.794861,159.909317 332.733124,158.404129 332.835419,156.910690 
	C333.087097,153.236618 335.093201,150.992233 338.750641,150.746353 
	C342.701385,150.480728 344.943726,152.765686 345.646973,156.504654 
	C345.920227,157.957596 345.767212,159.495255 345.767517,160.994324 
	C345.772552,186.155746 345.771118,211.317154 345.771118,237.879730 
	C347.628723,235.797882 348.774933,234.574112 349.854675,233.294250 
	C371.231812,207.955307 392.601440,182.610016 413.971558,157.265152 
	C414.508148,156.628754 414.993652,155.944321 415.570618,155.347656 
	C418.656128,152.156891 422.635773,151.627014 425.294342,154.302246 
	C428.248291,157.274704 428.010223,160.673630 425.498505,163.742050 
	C420.011810,170.444946 414.365082,177.017044 408.768524,183.629761 
	C391.548645,203.976196 374.429443,224.409790 356.998932,244.574234 
	C353.828156,248.242355 354.080658,250.430206 356.841003,254.138260 
	C376.724243,280.847870 396.348022,307.750641 416.053986,334.592255 
	C416.940186,335.799377 417.899048,336.960724 418.696655,338.223846 
	C421.035461,341.927521 420.605774,345.901154 417.468231,347.982025 
	C413.839478,350.388702 410.732880,349.055054 408.323273,345.968140 
	C404.839966,341.505859 401.553345,336.890015 397.994995,332.036560 
z"/>
</svg>